<?xml version="1.0" encoding="utf-8"?>
<!-- Generator: Adobe Illustrator 27.8.1, SVG Export Plug-In . SVG Version: 6.00 Build 0)  -->
<svg version="1.1" id="Layer_1" xmlns="http://www.w3.org/2000/svg" xmlns:xlink="http://www.w3.org/1999/xlink" x="0px" y="0px"
	 viewBox="0 0 150 150" style="enable-background:new 0 0 150 150;" xml:space="preserve">
<style type="text/css">
	.st0{fill:#A8BACF;}
</style>
<g>
	<g>
		<g>
			<path class="st0" d="M49.47,64.75c0-6.27,0.5-12.46,1.47-18.47l-13.1,22.75c0.79,24.14,8.36,46.56,20.85,65.51
				c5.11,1.27,10.45,1.97,15.95,2C58.89,116.83,49.47,91.86,49.47,64.75z"/>
			<path class="st0" d="M31.06,80.76l-9.18,15.89c1.61,7.25,3.78,14.28,6.43,21.08c5.53,5.3,11.95,9.67,19.01,12.86
				C38.83,115.52,33.16,98.67,31.06,80.76z"/>
			<path class="st0" d="M94.55,129.54c10.88-18.32,16.94-39.08,17.65-60.48L99.13,46.4c0.94,6.04,1.44,12.17,1.44,18.35
				c0,19.35-4.78,38.17-13.92,54.97c-1.99-2.81-3.81-5.75-5.45-8.74c7.42-14.25,11.29-30.2,11.29-46.23
				c0-16.04-3.87-31.98-11.29-46.26c-0.35-0.67-0.7-1.32-1.06-1.99L75,7.09l-5.13,9.41C63.68,27.81,59.73,40.24,58.2,52.97
				c-0.09,0.88-0.18,1.79-0.26,2.67c-0.09,0.94-0.15,1.91-0.21,2.84c-0.15,2.08-0.21,4.19-0.21,6.27c0,2.08,0.06,4.19,0.21,6.27
				c0.06,0.94,0.12,1.91,0.21,2.84c0.09,0.88,0.18,1.79,0.26,2.67c1.47,13.34,5.39,26.33,11.61,38.08
				c3.55,6.8,7.92,13.31,12.99,19.32l1.64,1.94c4.54-0.64,8.93-1.73,13.14-3.22C96.55,131.64,95.54,130.6,94.55,129.54z M75,96.15
				c-2.9-7.65-4.72-15.68-5.42-23.86c-0.12-1.17-0.18-2.35-0.23-3.52c-0.06-1.35-0.09-2.67-0.09-4.02c0-1.38,0.03-2.73,0.09-4.07
				c0.06-1.35,0.15-2.7,0.26-4.05c0.09-1,0.18-1.99,0.32-2.99c0.88-7.01,2.58-13.81,5.07-20.37c3.81,10.03,5.75,20.58,5.75,31.49
				C80.75,75.48,78.78,86.15,75,96.15z"/>
			<path class="st0" d="M128.15,96.65l-9.18-15.89c-2.08,17.55-7.57,34.4-16.21,49.79c7.06-3.2,13.48-7.58,19-12.89
				C124.42,110.83,126.57,103.81,128.15,96.65z"/>
		</g>
		<path id="XMLID_00000091016976522892001360000016993284087751163064_" class="st0" d="M117.89,12.91
			c16.87,12.91,27.75,33.24,27.75,56.12c0,39.01-31.63,70.64-70.64,70.64S4.36,108.05,4.36,69.03c0-22.88,10.88-43.21,27.75-56.12
			C12.7,26.47,0,48.97,0,74.44c0,41.42,33.58,75,75,75s75-33.58,75-75C150,48.97,137.3,26.47,117.89,12.91z"/>
	</g>
</g>
</svg>
