<?xml version="1.0" encoding="utf-8"?>
<!-- Generator: Adobe Illustrator 27.8.1, SVG Export Plug-In . SVG Version: 6.00 Build 0)  -->
<svg version="1.1" id="Layer_1" xmlns="http://www.w3.org/2000/svg" xmlns:xlink="http://www.w3.org/1999/xlink" x="0px" y="0px"
	 viewBox="0 0 1280 1280" style="enable-background:new 0 0 1280 1280;" xml:space="preserve">
<style type="text/css">
	.st0{fill:#A8BBCF;}
</style>
<g>
	<g>
		<path class="st0" d="M464.9,547.63c0-43.04,3.42-85.48,10.06-126.71l-89.91,156.08c5.4,165.65,57.33,319.46,143.03,449.46
			c35.08,8.74,71.7,13.49,109.4,13.7C529.54,904.91,464.9,733.66,464.9,547.63z"/>
		<path class="st0" d="M338.59,657.44l-62.95,109.01c11.06,49.75,25.97,98,44.09,144.64c37.91,36.37,81.95,66.34,130.44,88.23
			C391.91,895.95,353.04,780.38,338.59,657.44z"/>
		<path class="st0" d="M774.24,992.13c74.62-125.71,116.25-268.11,121.08-414.93l-89.71-155.47c6.43,41.43,9.86,83.47,9.86,125.91
			c0,132.75-32.79,261.87-95.54,377.12c-13.68-19.31-26.15-39.42-37.41-59.94c50.89-97.75,77.44-207.17,77.44-317.18
			c0-110.02-26.55-219.43-77.44-317.39c-2.41-4.63-4.83-9.05-7.24-13.68L640.08,152l-35.2,64.56
			c-42.44,77.64-69.59,162.92-80.05,250.21c-0.6,6.03-1.2,12.27-1.81,18.3c-0.6,6.44-1.01,13.07-1.41,19.51
			c-1.01,14.28-1.41,28.76-1.41,43.04c0,14.28,0.4,28.76,1.41,43.04c0.4,6.44,0.8,13.07,1.41,19.51c0.6,6.03,1.21,12.27,1.81,18.3
			c10.06,91.52,37.01,180.62,79.65,261.27c24.34,46.66,54.31,91.31,89.1,132.55l11.24,13.3c31.14-4.38,61.29-11.84,90.14-22.1
			C787.93,1006.54,781,999.45,774.24,992.13z M640.08,763.04c-19.91-52.49-32.38-107.6-37.21-163.72
			c-0.81-8.05-1.21-16.09-1.61-24.14c-0.4-9.25-0.6-18.3-0.6-27.55c0-9.45,0.2-18.7,0.6-27.96c0.4-9.25,1.01-18.5,1.81-27.76
			c0.6-6.84,1.21-13.68,2.21-20.52c6.03-48.07,17.7-94.73,34.8-139.79c26.15,68.79,39.42,141.2,39.42,216.02
			C679.51,621.24,666.03,694.45,640.08,763.04z"/>
		<path class="st0" d="M1004.73,766.46l-62.95-109.01c-14.27,120.43-51.94,236-111.19,341.62c48.46-21.96,92.47-52,130.34-88.44
			C979.12,863.75,993.87,815.62,1004.73,766.46z"/>
	</g>
	<path id="XMLID_00000046297870232698425480000015547637887418928529_" class="st0" d="M934.38,191.95
		c115.71,88.57,190.36,228.08,190.36,385.06c0,267.66-216.99,484.65-484.65,484.65S155.43,844.68,155.43,577.01
		c0-156.97,74.65-296.49,190.36-385.06c-133.15,93.01-220.27,247.38-220.27,422.12c0,284.19,230.38,514.57,514.57,514.57
		s514.57-230.38,514.57-514.57C1154.65,439.33,1067.53,284.96,934.38,191.95z"/>
</g>
</svg>
